<svg id="Capa_1" enable-background="new 0 0 512 512" height="512" viewBox="0 0 512 512" width="512" xmlns="http://www.w3.org/2000/svg"><g><path d="m308.485 65.654 43.382-65.654h-95.867l-20.016 85.67z" fill="#c9885b"/><path d="m256 0h-95.867l43.382 65.654 52.485 20.016z" fill="#dbad5c"/><path d="m308.485 65.654h-52.485l-20.016 50.04 72.501-20.016z" fill="#724435"/><path d="m256 65.654h-52.485v30.024l52.485 20.016z" fill="#9b5e34"/><path d="m459.442 322.347-150.957-226.669h-52.485l-20.016 208.161 20.016 208.161h101.884c97.429 0 155.563-108.562 101.558-189.653z" fill="#c9885b"/><path d="m203.515 95.678-150.957 226.669c-54.005 81.091 4.129 189.653 101.558 189.653h101.884v-416.322z" fill="#dbad5c"/><path d="m316.024 258.791v-30h-45.024v-30h-15l-10.008 43.715 10.008 16.285z" fill="#e1ebf0"/><path d="m286.024 318.839v30.048h-30.024l-10.008 15.619 10.008 44.381h15v-30h45.024v-90.048h-60.024l-10.008 15 10.008 15z" fill="#e1ebf0"/><g fill="#fff5f5"><path d="m195.976 348.887v30h45.024v30h15v-60z"/><path d="m225.976 258.791h30.024v-60h-15v30h-45.024v90.048h60.024v-30h-30.024z"/></g></g></svg>